<svg xmlns="http://www.w3.org/2000/svg" width="1953" height="1330" viewBox="0 0 1953 1330" role="img" aria-label="Avro Serialization/Deserialization Flow">
<defs>
  <filter id="shadow" x="-8%" y="-8%" width="116%" height="116%"><feDropShadow dx="0" dy="6" stdDeviation="7" flood-color="#203040" flood-opacity="0.10"/></filter>
  <marker id="seqArrow-blue" markerWidth="5" markerHeight="5" refX="4.5" refY="2.5" orient="auto" markerUnits="strokeWidth"><path d="M 0.5 0.5 L 4.5 2.5 L 0.5 4.5 Z" fill="#4F83BF"/></marker>
  <marker id="seqArrow-green" markerWidth="5" markerHeight="5" refX="4.5" refY="2.5" orient="auto" markerUnits="strokeWidth"><path d="M 0.5 0.5 L 4.5 2.5 L 0.5 4.5 Z" fill="#3E9868"/></marker>
  <marker id="seqArrow-teal" markerWidth="5" markerHeight="5" refX="4.5" refY="2.5" orient="auto" markerUnits="strokeWidth"><path d="M 0.5 0.5 L 4.5 2.5 L 0.5 4.5 Z" fill="#2E8F89"/></marker>
  <marker id="seqArrow-amber" markerWidth="5" markerHeight="5" refX="4.5" refY="2.5" orient="auto" markerUnits="strokeWidth"><path d="M 0.5 0.5 L 4.5 2.5 L 0.5 4.5 Z" fill="#B9851B"/></marker>
  <marker id="seqArrow-pink" markerWidth="5" markerHeight="5" refX="4.5" refY="2.5" orient="auto" markerUnits="strokeWidth"><path d="M 0.5 0.5 L 4.5 2.5 L 0.5 4.5 Z" fill="#C94D68"/></marker>
  <marker id="seqArrow-purple" markerWidth="5" markerHeight="5" refX="4.5" refY="2.5" orient="auto" markerUnits="strokeWidth"><path d="M 0.5 0.5 L 4.5 2.5 L 0.5 4.5 Z" fill="#755BC6"/></marker>
  <marker id="seqArrow-gray" markerWidth="5" markerHeight="5" refX="4.5" refY="2.5" orient="auto" markerUnits="strokeWidth"><path d="M 0.5 0.5 L 4.5 2.5 L 0.5 4.5 Z" fill="#758297"/></marker>
  <style>
    .canvas{fill:#F6F9FC}.frame{fill:#fff;stroke:#C7D7E7;stroke-width:3;filter:url(#shadow)}
    .title{font-family:"Architects Daughter";font-size:44px;fill:#22344A}.subtitle{font-family:"Comic Mono";font-size:16px;fill:#536476}
    .card{filter:url(#shadow);stroke-width:2}.cardTitle{font-family:"Architects Daughter";font-size:24px;fill:#22344A}.detail{font-family:"Comic Mono";font-size:13px;fill:#42556B}
    .lifeline{stroke:#A7B4C3;stroke-width:1.8;stroke-dasharray:8 8}.seq{fill:none;stroke-width:3;stroke-linecap:round}.seqReturn{fill:none;stroke-width:2.7;stroke-linecap:round;stroke-dasharray:8 7}
    .labelPill{fill:#fff;stroke:#D6E3EF;stroke-width:1.4}.altBox{fill:#FFFFFF;fill-opacity:.42;stroke:#D6A441;stroke-width:1.8;stroke-dasharray:8 8}
  </style>
</defs>
<rect class="canvas" width="1953" height="1330"/>
<rect class="frame" x="32" y="28" width="1889" height="1274" rx="30"/>
<text class="title" x="68" y="84">Avro Serialization/Deserialization Flow</text>
<text class="subtitle" x="72" y="116">Shows the main calls, branches, and returned values for this flow.</text>
<g id="seq-application"><rect class="card" x="140" y="170" width="230" height="78" rx="10" fill="#E8F3FF" stroke="#5B8DEF"/><text class="cardTitle" x="255" y="215" text-anchor="middle">Application</text><line class="lifeline" x1="255" y1="248" x2="255" y2="1246"/></g>
<g id="seq-avroserializer"><rect class="card" x="575.2" y="170" width="230" height="78" rx="10" fill="#EAF7EF" stroke="#58A978"/><text class="cardTitle" x="690.2" y="215" text-anchor="middle">AvroSerializer</text><line class="lifeline" x1="690.2" y1="248" x2="690.2" y2="1246"/></g>
<g id="seq-codecfactory"><rect class="card" x="1010.4" y="170" width="230" height="78" rx="10" fill="#E9F7F6" stroke="#45A7A1"/><text class="cardTitle" x="1125.4" y="215" text-anchor="middle">CodecFactory</text><line class="lifeline" x1="1125.4" y1="248" x2="1125.4" y2="1246"/></g>
<g id="seq-avro-runtime"><rect class="card" x="1445.6" y="170" width="230" height="78" rx="10" fill="#FFF3D9" stroke="#D6A441"/><text class="cardTitle" x="1560.6" y="215" text-anchor="middle">Avro Runtime</text><line class="lifeline" x1="1560.6" y1="248" x2="1560.6" y2="1246"/></g>
<rect x="247" y="322" width="16" height="838" rx="5" fill="#E8F3FF" stroke="#5B8DEF" stroke-width="1.4"/>
<rect x="682.2" y="322" width="16" height="838" rx="5" fill="#EAF7EF" stroke="#58A978" stroke-width="1.4"/>
<rect x="1117.4" y="412" width="16" height="52" rx="5" fill="#E9F7F6" stroke="#45A7A1" stroke-width="1.4"/>
<rect x="1552.6" y="502" width="16" height="568" rx="5" fill="#FFF3D9" stroke="#D6A441" stroke-width="1.4"/>
<g id="m1"><rect class="labelPill" x="364.6" y="287" width="216.1" height="26" rx="7"/><circle cx="383.6" cy="300" r="12" fill="#4F83BF"/><text class="detail" x="383.6" y="301" text-anchor="middle" dominant-baseline="middle" style="fill:#fff;font-size:12px">1</text><text class="detail" x="490.6" y="301" text-anchor="middle" dominant-baseline="middle">serialize(record)</text><path class="seq" d="M255 330 L690.2 330" stroke="#4F83BF" marker-end="url(#seqArrow-blue)"/></g>
<g id="m2"><rect class="labelPill" x="774.2" y="361" width="267.2" height="42" rx="7"/><circle cx="793.2" cy="382" r="12" fill="#3E9868"/><text class="detail" x="793.2" y="383" text-anchor="middle" dominant-baseline="middle" style="fill:#fff;font-size:12px">2</text><text class="detail" x="925.8" y="374" text-anchor="middle" dominant-baseline="middle">Select compression codec</text><text class="detail" x="925.8" y="389" text-anchor="middle" dominant-baseline="middle">(Zstd/Snappy/Deflate)</text><path class="seq" d="M690.2 420 L1125.4 420" stroke="#3E9868" marker-end="url(#seqArrow-green)"/></g>
<g id="m3"><rect class="labelPill" x="995.5" y="467" width="259.9" height="26" rx="7"/><circle cx="1014.5" cy="480" r="12" fill="#2E8F89"/><text class="detail" x="1014.5" y="481" text-anchor="middle" dominant-baseline="middle" style="fill:#fff;font-size:12px">3</text><text class="detail" x="1143.4" y="481" text-anchor="middle" dominant-baseline="middle">Encode with DatumWriter</text><path class="seq" d="M690.2 510 L1560.6 510" stroke="#2E8F89" marker-end="url(#seqArrow-teal)"/></g>
<g id="m4"><rect class="labelPill" x="1006.4" y="557" width="238" height="26" rx="7"/><circle cx="1025.4" cy="570" r="12" fill="#2E8F89"/><text class="detail" x="1025.4" y="571" text-anchor="middle" dominant-baseline="middle" style="fill:#fff;font-size:12px">4</text><text class="detail" x="1143.4" y="571" text-anchor="middle" dominant-baseline="middle">Compressed ByteArray</text><path class="seqReturn" d="M1560.6 600 L690.2 600" stroke="#2E8F89" marker-end="url(#seqArrow-teal)"/></g>
<g id="m5"><rect class="labelPill" x="367.6" y="647" width="210" height="26" rx="7"/><circle cx="386.6" cy="660" r="12" fill="#2E8F89"/><text class="detail" x="386.6" y="661" text-anchor="middle" dominant-baseline="middle" style="fill:#fff;font-size:12px">5</text><text class="detail" x="490.6" y="661" text-anchor="middle" dominant-baseline="middle">ByteArray</text><path class="seqReturn" d="M690.2 690 L255 690" stroke="#2E8F89" marker-end="url(#seqArrow-teal)"/></g>
<g id="m6"><rect class="labelPill" x="360.9" y="737" width="223.4" height="26" rx="7"/><circle cx="379.9" cy="750" r="12" fill="#755BC6"/><text class="detail" x="379.9" y="751" text-anchor="middle" dominant-baseline="middle" style="fill:#fff;font-size:12px">6</text><text class="detail" x="490.6" y="751" text-anchor="middle" dominant-baseline="middle">deserialize(bytes)</text><path class="seq" d="M255 780 L690.2 780" stroke="#755BC6" marker-end="url(#seqArrow-purple)"/></g>
<g id="m7"><rect class="labelPill" x="969.9" y="811" width="311" height="42" rx="7"/><circle cx="988.9" cy="832" r="12" fill="#4F83BF"/><text class="detail" x="988.9" y="833" text-anchor="middle" dominant-baseline="middle" style="fill:#fff;font-size:12px">7</text><text class="detail" x="1143.4" y="824" text-anchor="middle" dominant-baseline="middle">Compare Writer Schema + Reader</text><text class="detail" x="1143.4" y="839" text-anchor="middle" dominant-baseline="middle">Schema</text><path class="seq" d="M690.2 870 L1560.6 870" stroke="#4F83BF" marker-end="url(#seqArrow-blue)"/></g>
<g id="m8"><rect class="labelPill" x="1670.6" y="901" width="210" height="42" rx="7"/><circle cx="1689.6" cy="922" r="12" fill="#3E9868"/><text class="detail" x="1689.6" y="923" text-anchor="middle" dominant-baseline="middle" style="fill:#fff;font-size:12px">8</text><text class="detail" x="1793.6" y="914" text-anchor="middle" dominant-baseline="middle">Validate field</text><text class="detail" x="1793.6" y="929" text-anchor="middle" dominant-baseline="middle">compatibility</text><path class="seq" d="M1560.6 960 L1650.6 960 L1650.6 998 L1578.6 998" stroke="#3E9868" marker-end="url(#seqArrow-green)"/></g>
<g id="m9"><rect class="labelPill" x="1010.1" y="1007" width="230.7" height="26" rx="7"/><circle cx="1029.1" cy="1020" r="12" fill="#2E8F89"/><text class="detail" x="1029.1" y="1021" text-anchor="middle" dominant-baseline="middle" style="fill:#fff;font-size:12px">9</text><text class="detail" x="1143.4" y="1021" text-anchor="middle" dominant-baseline="middle">Deserialized object</text><path class="seqReturn" d="M1560.6 1050 L690.2 1050" stroke="#2E8F89" marker-end="url(#seqArrow-teal)"/></g>
<g id="m10"><rect class="labelPill" x="328.1" y="1097" width="289.1" height="26" rx="7"/><circle cx="347.1" cy="1110" r="12" fill="#2E8F89"/><text class="detail" x="347.1" y="1111" text-anchor="middle" dominant-baseline="middle" style="fill:#fff;font-size:12px">10</text><text class="detail" x="490.6" y="1111" text-anchor="middle" dominant-baseline="middle">T (returns null on failure)</text><path class="seqReturn" d="M690.2 1140 L255 1140" stroke="#2E8F89" marker-end="url(#seqArrow-teal)"/></g>
</svg>
