<svg data-intent="Explain Java time utilities by grouping date/time DSL receivers, interval and period abstractions, calendar range operations, date arithmetic, and coroutine range flows." data-evidence="utils/javatimes/README.md; utils/javatimes/src/main/kotlin/io/bluetape4k/javatimes" data-source-read="utils/javatimes/README.md; utils/javatimes/src/main/kotlin/io/bluetape4k/javatimes" xmlns="http://www.w3.org/2000/svg" width="1500" height="1158" viewBox="0 0 1500 1158" role="img" aria-label="Java Time Feature Overview">
<defs>
  <filter id="shadow" x="-8%" y="-8%" width="116%" height="116%"><feDropShadow dx="0" dy="6" stdDeviation="7" flood-color="#203040" flood-opacity="0.10"/></filter>
  <marker id="arrow" markerWidth="5" markerHeight="5" refX="4.5" refY="2.5" orient="auto" markerUnits="strokeWidth"><path d="M 0.5 0.5 L 4.5 2.5 L 0.5 4.5 Z" fill="context-stroke"/></marker>
  <marker id="seqArrow-blue" markerWidth="5" markerHeight="5" refX="4.5" refY="2.5" orient="auto" markerUnits="strokeWidth"><path d="M 0.5 0.5 L 4.5 2.5 L 0.5 4.5 Z" fill="#4F83BF"/></marker>
  <marker id="seqArrow-green" markerWidth="5" markerHeight="5" refX="4.5" refY="2.5" orient="auto" markerUnits="strokeWidth"><path d="M 0.5 0.5 L 4.5 2.5 L 0.5 4.5 Z" fill="#3E9868"/></marker>
  <marker id="seqArrow-teal" markerWidth="5" markerHeight="5" refX="4.5" refY="2.5" orient="auto" markerUnits="strokeWidth"><path d="M 0.5 0.5 L 4.5 2.5 L 0.5 4.5 Z" fill="#2E8F89"/></marker>
  <marker id="seqArrow-amber" markerWidth="5" markerHeight="5" refX="4.5" refY="2.5" orient="auto" markerUnits="strokeWidth"><path d="M 0.5 0.5 L 4.5 2.5 L 0.5 4.5 Z" fill="#B9851B"/></marker>
  <marker id="seqArrow-pink" markerWidth="5" markerHeight="5" refX="4.5" refY="2.5" orient="auto" markerUnits="strokeWidth"><path d="M 0.5 0.5 L 4.5 2.5 L 0.5 4.5 Z" fill="#C94D68"/></marker>
  <marker id="seqArrow-purple" markerWidth="5" markerHeight="5" refX="4.5" refY="2.5" orient="auto" markerUnits="strokeWidth"><path d="M 0.5 0.5 L 4.5 2.5 L 0.5 4.5 Z" fill="#755BC6"/></marker>
  <marker id="seqArrow-gray" markerWidth="5" markerHeight="5" refX="4.5" refY="2.5" orient="auto" markerUnits="strokeWidth"><path d="M 0.5 0.5 L 4.5 2.5 L 0.5 4.5 Z" fill="#758297"/></marker>
  <style>
    .canvas{fill:#F6F9FC}.frame{fill:#fff;stroke:#C7D7E7;stroke-width:3;filter:url(#shadow)}
    .title{font-family:"Architects Daughter";font-size:44px;fill:#22344A}.subtitle{font-family:"Comic Mono";font-size:16px;fill:#536476}
    .panel{fill:#F7FBFF;stroke:#D6E3EF;stroke-width:2}.panelTitle{font-family:"Architects Daughter";font-size:24px;fill:#31445A}
    .card{filter:url(#shadow);stroke-width:2}.cardTitle{font-family:"Architects Daughter";font-size:23px;fill:#22344A}.detail{font-family:"Comic Mono";font-size:13px;fill:#42556B}
    .labelPill{fill:#fff;stroke:#D6E3EF;stroke-width:1.5}
    .route{fill:none;stroke-width:2.8;stroke-linecap:round;stroke-linejoin:round;marker-end:url(#arrow)}
    .seq,.seqReturn{fill:none;stroke-width:2.8;stroke-linecap:round;stroke-linejoin:round}.seqReturn{stroke-dasharray:8 7}
    .dashed{stroke-dasharray:8 7}.plain{fill:none;stroke-width:2.4;stroke-linecap:round;stroke-linejoin:round}
  </style>
</defs>
<rect class="canvas" width="1500" height="1158"/>
<rect class="frame" x="34" y="30" width="1432" height="1098" rx="32"/>
<text class="title" x="72" y="84">Java Time Feature Overview</text>
<text class="subtitle" x="76" y="116">The module groups date/time DSLs by receiver type, interval abstractions, calendar ranges, and arithmetic/flow operations.</text>
<g><rect class="panel" x="82" y="160" width="1336" height="234" rx="22"/><text class="panelTitle" x="110" y="196" dominant-baseline="middle">Receivers</text></g>
<g id="temporal">
  <rect class="card" x="146" y="256" width="370" height="84" rx="14" fill="#E8F3FF" stroke="#5B8DEF"/>
  <text class="cardTitle" x="331" y="291" text-anchor="middle" dominant-baseline="middle">java.time receivers</text>
  <text class="detail" x="331" y="321" text-anchor="middle" dominant-baseline="middle">Instant, LocalDate, ZonedDateTime</text>
</g>
<g id="period">
  <rect class="card" x="1034" y="256" width="320" height="84" rx="14" fill="#EAF7EF" stroke="#58A978"/>
  <text class="cardTitle" x="1194" y="291" text-anchor="middle" dominant-baseline="middle">Period / Duration</text>
  <text class="detail" x="1194" y="321" text-anchor="middle" dominant-baseline="middle">typed amount helpers</text>
</g>
<g><rect class="panel" x="82" y="478" width="1336" height="234" rx="22"/><text class="panelTitle" x="110" y="514" dominant-baseline="middle">Utility families</text></g>
<g id="range">
  <rect class="card" x="146" y="574" width="320" height="84" rx="14" fill="#E9F7F6" stroke="#45A7A1"/>
  <text class="cardTitle" x="306" y="609" text-anchor="middle" dominant-baseline="middle">Temporal ranges</text>
  <text class="detail" x="306" y="639" text-anchor="middle" dominant-baseline="middle">date range and overlap</text>
</g>
<g id="calendar">
  <rect class="card" x="575" y="574" width="340" height="84" rx="14" fill="#FFF3D9" stroke="#D6A441"/>
  <text class="cardTitle" x="745" y="609" text-anchor="middle" dominant-baseline="middle">Calendar periods</text>
  <text class="detail" x="745" y="639" text-anchor="middle" dominant-baseline="middle">quarter, month, week windows</text>
</g>
<g id="arithmetic">
  <rect class="card" x="1024" y="574" width="330" height="84" rx="14" fill="#F1ECFF" stroke="#8A72D6"/>
  <text class="cardTitle" x="1189" y="609" text-anchor="middle" dominant-baseline="middle">Date arithmetic</text>
  <text class="detail" x="1189" y="639" text-anchor="middle" dominant-baseline="middle">add/diff/truncate helpers</text>
</g>
<g><rect class="panel" x="82" y="796" width="1336" height="234" rx="22"/><text class="panelTitle" x="110" y="832" dominant-baseline="middle">Outputs</text></g>
<g id="flow">
  <rect class="card" x="146" y="892" width="340" height="84" rx="14" fill="#FDECEF" stroke="#DC6B82"/>
  <text class="cardTitle" x="316" y="927" text-anchor="middle" dominant-baseline="middle">Coroutine range Flow</text>
  <text class="detail" x="316" y="957" text-anchor="middle" dominant-baseline="middle">iterate time windows</text>
</g>
<g id="formatted">
  <rect class="card" x="1044" y="892" width="310" height="84" rx="14" fill="#EEF6D9" stroke="#8BA84D"/>
  <text class="cardTitle" x="1199" y="927" text-anchor="middle" dominant-baseline="middle">Formatted values</text>
  <text class="detail" x="1199" y="957" text-anchor="middle" dominant-baseline="middle">ISO and localized text</text>
</g>
<path class="route" data-from="temporal" data-to="range" d="M213 340 L213 435 L378 435 L378 574" stroke="#4F83BF"/>
<path class="route" data-from="period" data-to="calendar" d="M1194 340 L1194 446 L745 446 L745 574" stroke="#3E9868"/>
<path class="route" data-from="temporal" data-to="arithmetic" d="M449 340 L449 457 L1189 457 L1189 574" stroke="#755BC6"/>
<path class="route" data-from="range" data-to="flow" d="M306 658 L306 892" stroke="#2E8F89"/>
<path class="route" data-from="calendar" data-to="flow" d="M745 658 L745 790 L386 790 L386 892" stroke="#B9851B"/>
<path class="route" data-from="arithmetic" data-to="formatted" d="M1194 658 L1194 892" stroke="#755BC6"/>
</svg>
