<svg xmlns="http://www.w3.org/2000/svg" width="1280" height="1168" viewBox="0 0 1280 1168"><style>.title{font-family:'Architects Daughter';font-size:34px;font-weight:400;fill:#273043}.subtitle,.legend,.note,.axis{font-family:'Comic Mono';fill:#6b7280;font-weight:400}.label,.value{font-family:'Comic Mono';fill:#273043;font-weight:400}.subtitle{font-size:18px}.legend{font-size:18px}.label{font-size:18px}.value{font-size:18px}.note,.axis{font-size:17px}</style><rect width="1280" height="1168" fill="#f6f8fb"/><rect x="24" y="24" width="1232" height="1120" rx="18" fill="#fff" stroke="#d7e3ee" stroke-width="2"/><text class="title" x="56" y="72">ID Generator Throughput</text><text class="subtitle" x="58" y="104">Single-thread and 16-thread benchmarks by batch size</text><rect x="56" y="116" width="18" height="18" rx="5" fill="#8ecae6"/><text class="legend" x="82" y="131">Single / 100</text><rect x="226" y="116" width="18" height="18" rx="5" fill="#b8e0d2"/><text class="legend" x="252" y="131">Single / 10k</text><rect x="396" y="116" width="18" height="18" rx="5" fill="#ffb3c7"/><text class="legend" x="422" y="131">16 threads / 100</text><rect x="606" y="116" width="18" height="18" rx="5" fill="#ffd166"/><text class="legend" x="632" y="131">16 threads / 10k</text><text class="label" x="56" y="197">UUID V7</text><rect x="285" y="142" width="785.3865781096467" height="18" rx="7" fill="#8ecae6"/><text class="value" x="1080.3865781096467" y="157">429,584 ops/s</text><rect x="285" y="166" width="320.4682426363297" height="18" rx="7" fill="#b8e0d2"/><text class="value" x="615.4682426363297" y="181">4,278 ops/s</text><rect x="285" y="190" width="620.0899602177692" height="18" rx="7" fill="#ffb3c7"/><text class="value" x="915.0899602177692" y="205">83,431 ops/s</text><rect x="285" y="214" width="150.72335330831413" height="18" rx="7" fill="#ffd166"/><text class="value" x="445.72335330831413" y="229">795 ops/s</text><text class="label" x="56" y="331">ULID</text><rect x="285" y="276" width="738.8532615871309" height="18" rx="7" fill="#8ecae6"/><text class="value" x="1033.8532615871309" y="291">270,825 ops/s</text><rect x="285" y="300" width="268.4002815210763" height="18" rx="7" fill="#b8e0d2"/><text class="value" x="563.4002815210763" y="315">2,553 ops/s</text><rect x="285" y="324" width="488.26444560705954" height="18" rx="7" fill="#ffb3c7"/><text class="value" x="783.2644456070595" y="339">22,580 ops/s</text><rect x="285" y="348" width="22.507282068917334" height="18" rx="7" fill="#ffd166"/><text class="value" x="317.50728206891733" y="363">223 ops/s</text><text class="label" x="56" y="465">UUID V4</text><rect x="285" y="410" width="643.9005058052986" height="18" rx="7" fill="#8ecae6"/><text class="value" x="938.9005058052986" y="425">105,645 ops/s</text><rect x="285" y="434" width="177.52762232841945" height="18" rx="7" fill="#b8e0d2"/><text class="value" x="472.52762232841945" y="449">1,037 ops/s</text><rect x="285" y="458" width="517.6503465080557" height="18" rx="7" fill="#ffb3c7"/><text class="value" x="812.6503465080557" y="473">30,217 ops/s</text><rect x="285" y="482" width="49.00533204854543" height="18" rx="7" fill="#ffd166"/><text class="value" x="344.0053320485454" y="497">290 ops/s</text><text class="label" x="56" y="599">Flake</text><rect x="285" y="544" width="574.0199126677436" height="18" rx="7" fill="#8ecae6"/><text class="value" x="869.0199126677436" y="559">52,840 ops/s</text><rect x="285" y="568" width="99.41037272602051" height="18" rx="7" fill="#b8e0d2"/><text class="value" x="394.4103727260205" y="583">478 ops/s</text><rect x="285" y="592" width="523.4677028510727" height="18" rx="7" fill="#ffb3c7"/><text class="value" x="818.4677028510727" y="607">32,011 ops/s</text><rect x="285" y="616" width="57.98438337827503" height="18" rx="7" fill="#ffd166"/><text class="value" x="352.984383378275" y="631">317 ops/s</text><text class="label" x="56" y="733">KSUID Seconds</text><rect x="285" y="678" width="575.9933392174784" height="18" rx="7" fill="#8ecae6"/><text class="value" x="870.9933392174784" y="693">53,884 ops/s</text><rect x="285" y="702" width="108.0987785498105" height="18" rx="7" fill="#b8e0d2"/><text class="value" x="403.0987785498105" y="717">521 ops/s</text><rect x="285" y="726" width="501.74978414389625" height="18" rx="7" fill="#ffb3c7"/><text class="value" x="796.7497841438962" y="741">25,810 ops/s</text><rect x="285" y="750" width="34.83871571846453" height="18" rx="7" fill="#ffd166"/><text class="value" x="329.8387157184645" y="765">252 ops/s</text><text class="label" x="56" y="867">KSUID Millis</text><rect x="285" y="812" width="586.6624055636495" height="18" rx="7" fill="#8ecae6"/><text class="value" x="881.6624055636495" y="827">59,896 ops/s</text><rect x="285" y="836" width="119.26654653349948" height="18" rx="7" fill="#b8e0d2"/><text class="value" x="414.2665465334995" y="851">582 ops/s</text><rect x="285" y="860" width="501.5855159064297" height="18" rx="7" fill="#ffb3c7"/><text class="value" x="796.5855159064297" y="875">25,768 ops/s</text><rect x="285" y="884" width="30.336911951461218" height="18" rx="7" fill="#ffd166"/><text class="value" x="325.3369119514612" y="899">241 ops/s</text><text class="label" x="56" y="1001">Snowflake</text><rect x="285" y="946" width="548.3620221745664" height="18" rx="7" fill="#8ecae6"/><text class="value" x="843.3620221745664" y="961">40,972 ops/s</text><rect x="285" y="970" width="83.93234153490556" height="18" rx="7" fill="#b8e0d2"/><text class="value" x="378.93234153490556" y="985">410 ops/s</text><rect x="285" y="994" width="506.3559943910036" height="18" rx="7" fill="#ffb3c7"/><text class="value" x="801.3559943910036" y="1009">27,016 ops/s</text><rect x="285" y="1018" width="35.238179950129734" height="18" rx="7" fill="#ffd166"/><text class="value" x="330.23817995012973" y="1033">253 ops/s</text><text class="axis" x="285" y="1104">log scale</text><text class="note" x="56" y="1130">Higher is better. Log scale avoids hiding 10k-batch results.</text></svg>
